# xmcd CD database file
#
# Track frame offsets:
#	183
#	18790
#	33868
#	51685
#	69860
#	90410
#	106668
#	125768
#	141433
#	164620
#	183903
#	203938
#	220303
#	237065
#	251983
#	267270
#	284828
#	306833
#
# Disc length: 4367 seconds
#
# Revision: 1
# Processed by: cddbd v1.5.2PL0 Copyright (c) Steve Scherf et al.
# Submitted via: CDex 1.51
#
DISCID=0f110d12
DTITLE=Various Artist - Gefühle - Vol.11 - Die schönsten romantischen Schlager
DYEAR=1900
DGENRE=Oldies
TTITLE0=Roland Kaiser - Santa Maria
TTITLE1=Marielle Mathieu - Du bringst mir nie mehr Blumen
TTITLE2=Peter Alexander - Und manchmal weinst du sicher ein paar Tränen
TTITLE3=Anne-Karin - Er war da, als ich dich brauchte
TTITLE4=Wolfgang Petry - Mein Zuhaus
TTITLE5=Milva - Sonntagsgesicht
TTITLE6=Peter Orloff - Ich liebe dich
TTITLE7=Gitte - Dann tanzt sie allein
TTITLE8=Stefan Waggershausen - Hallo Engel
TTITLE9=Peter Cornelius - Der Kaffee ist fertig
TTITLE10=Hanne Haller - Samstag Abend
TTITLE11=Hoffmann and Hoffmann - Alles was ich brauche, bist du
TTITLE12=Karel Gott - Wenn ich dich nicht hätte
TTITLE13=Lisbeth List - Kein Vergleich
TTITLE14=Reinhard Mey - Sommermorgen
TTITLE15=Katja Ebstein - Wo sind die Clowns
TTITLE16=Howard Carpendale - Nachts wenn alles schläft
TTITLE17=Robert Long - Stark sein
EXTD=
EXTT0=
EXTT1=
EXTT2=
EXTT3=
EXTT4=
EXTT5=
EXTT6=
EXTT7=
EXTT8=
EXTT9=
EXTT10=
EXTT11=
EXTT12=
EXTT13=
EXTT14=
EXTT15=
EXTT16=
EXTT17=
PLAYORDER=
